<svg style="margin-bottom: 4px;" class="bi mr-1" xmlns="http://www.w3.org/2000/svg" xmlns:xlink="http://www.w3.org/1999/xlink" width="16pt" height="16pt" viewBox="0 0 16 16" version="1.1">
    <g id="surface1">
        <path style="stroke:none;fill-rule:nonzero;fill:rgb(255, 255, 255);fill-opacity:1;" d="M 4.332031 12.667969 L 3 12.667969 C 2.816406 12.667969 2.667969 12.515625 2.667969 12.332031 C 2.667969 12.148438 2.816406 12 3 12 L 4.332031 12 C 4.515625 12 4.667969 12.148438 4.667969 12.332031 C 4.667969 12.515625 4.515625 12.667969 4.332031 12.667969 Z M 4.332031 12.667969 "></path>
        <path style="stroke:none;fill-rule:nonzero;fill:rgb(255, 255, 255);fill-opacity:1;" d="M 15.167969 12.667969 L 14.332031 12.667969 C 14.148438 12.667969 14 12.515625 14 12.332031 C 14 12.148438 14.148438 12 14.332031 12 L 14.890625 12 L 15.339844 9.605469 C 15.332031 8.378906 14.285156 7.332031 13 7.332031 L 10.8125 7.332031 L 9.75 12 L 11.667969 12 C 11.851562 12 12 12.148438 12 12.332031 C 12 12.515625 11.851562 12.667969 11.667969 12.667969 L 9.332031 12.667969 C 9.230469 12.667969 9.136719 12.621094 9.074219 12.542969 C 9.007812 12.460938 8.984375 12.359375 9.007812 12.261719 L 10.21875 6.925781 C 10.253906 6.773438 10.390625 6.667969 10.546875 6.667969 L 13 6.667969 C 14.652344 6.667969 16 8.011719 16 9.667969 L 15.492188 12.394531 C 15.464844 12.550781 15.328125 12.667969 15.167969 12.667969 Z M 15.167969 12.667969 "></path>
        <path style="stroke:none;fill-rule:nonzero;fill:rgb(255, 255, 255);fill-opacity:1;" d="M 13 14 C 12.082031 14 11.332031 13.253906 11.332031 12.332031 C 11.332031 11.414062 12.082031 10.667969 13 10.667969 C 13.917969 10.667969 14.667969 11.414062 14.667969 12.332031 C 14.667969 13.253906 13.917969 14 13 14 Z M 13 11.332031 C 12.449219 11.332031 12 11.78125 12 12.332031 C 12 12.882812 12.449219 13.332031 13 13.332031 C 13.550781 13.332031 14 12.882812 14 12.332031 C 14 11.78125 13.550781 11.332031 13 11.332031 Z M 13 11.332031 "></path>
        <path style="stroke:none;fill-rule:nonzero;fill:rgb(255, 255, 255);fill-opacity:1;" d="M 5.667969 14 C 4.746094 14 4 13.253906 4 12.332031 C 4 11.414062 4.746094 10.667969 5.667969 10.667969 C 6.585938 10.667969 7.332031 11.414062 7.332031 12.332031 C 7.332031 13.253906 6.585938 14 5.667969 14 Z M 5.667969 11.332031 C 5.117188 11.332031 4.667969 11.78125 4.667969 12.332031 C 4.667969 12.882812 5.117188 13.332031 5.667969 13.332031 C 6.21875 13.332031 6.667969 12.882812 6.667969 12.332031 C 6.667969 11.78125 6.21875 11.332031 5.667969 11.332031 Z M 5.667969 11.332031 "></path>
        <path style="stroke:none;fill-rule:nonzero;fill:rgb(255, 255, 255);fill-opacity:1;" d="M 4.332031 6.667969 L 1.667969 6.667969 C 1.484375 6.667969 1.332031 6.515625 1.332031 6.332031 C 1.332031 6.148438 1.484375 6 1.667969 6 L 4.332031 6 C 4.515625 6 4.667969 6.148438 4.667969 6.332031 C 4.667969 6.515625 4.515625 6.667969 4.332031 6.667969 Z M 4.332031 6.667969 "></path>
        <path style="stroke:none;fill-rule:nonzero;fill:rgb(255, 255, 255);fill-opacity:1;" d="M 4.332031 8.667969 L 1 8.667969 C 0.816406 8.667969 0.667969 8.515625 0.667969 8.332031 C 0.667969 8.148438 0.816406 8 1 8 L 4.332031 8 C 4.515625 8 4.667969 8.148438 4.667969 8.332031 C 4.667969 8.515625 4.515625 8.667969 4.332031 8.667969 Z M 4.332031 8.667969 "></path>
        <path style="stroke:none;fill-rule:nonzero;fill:rgb(255, 255, 255);fill-opacity:1;" d="M 4.332031 10.667969 L 0.332031 10.667969 C 0.148438 10.667969 0 10.515625 0 10.332031 C 0 10.148438 0.148438 10 0.332031 10 L 4.332031 10 C 4.515625 10 4.667969 10.148438 4.667969 10.332031 C 4.667969 10.515625 4.515625 10.667969 4.332031 10.667969 Z M 4.332031 10.667969 "></path>
        <path style="stroke:none;fill-rule:nonzero;fill:rgb(255, 255, 255);fill-opacity:1;" d="M 9.332031 12.667969 L 7 12.667969 C 6.816406 12.667969 6.667969 12.515625 6.667969 12.332031 C 6.667969 12.148438 6.816406 12 7 12 L 9.066406 12 L 10.582031 5.332031 L 3 5.332031 C 2.816406 5.332031 2.667969 5.183594 2.667969 5 C 2.667969 4.816406 2.816406 4.667969 3 4.667969 L 11 4.667969 C 11.101562 4.667969 11.199219 4.710938 11.261719 4.792969 C 11.324219 4.871094 11.347656 4.976562 11.324219 5.074219 L 9.660156 12.40625 C 9.625 12.558594 9.488281 12.667969 9.332031 12.667969 Z M 9.332031 12.667969 "></path>
    </g>
</svg>