<svg style="margin-bottom: 2px;" class="bi mr-1" xmlns="http://www.w3.org/2000/svg" xmlns:xlink="http://www.w3.org/1999/xlink" width="16pt" height="16pt" viewBox="0 0 16 16" version="1.1">
    <g id="surface1">
        <path style="stroke:#fff;stroke-width:.3;fill-rule:nonzero;fill:rgb(255, 255, 255);fill-opacity:1;" d="M 15.945312 14.199219 L 14.863281 3.890625 C 14.851562 3.761719 14.734375 3.667969 14.605469 3.679688 C 14.476562 3.695312 14.382812 3.8125 14.398438 3.941406 L 15.476562 14.246094 C 15.511719 14.574219 15.40625 14.902344 15.183594 15.144531 C 14.964844 15.390625 14.648438 15.53125 14.320312 15.53125 L 1.679688 15.53125 C 1.351562 15.53125 1.035156 15.390625 0.816406 15.144531 C 0.59375 14.902344 0.488281 14.574219 0.523438 14.246094 L 1.175781 8.023438 C 1.1875 7.894531 1.09375 7.78125 0.964844 7.765625 C 0.835938 7.753906 0.722656 7.847656 0.707031 7.976562 L 0.0546875 14.199219 C 0.0078125 14.65625 0.15625 15.117188 0.464844 15.460938 C 0.773438 15.804688 1.21875 16 1.679688 16 L 14.320312 16 C 14.78125 16 15.226562 15.804688 15.535156 15.460938 C 15.84375 15.117188 15.992188 14.65625 15.945312 14.199219 Z M 15.945312 14.199219 "></path>
        <path style="stroke:#fff;stroke-width:.3;fill-rule:nonzero;fill:rgb(255, 255, 255);fill-opacity:1;" d="M 14.695312 2.265625 L 14.5 0.394531 C 14.472656 0.167969 14.285156 0 14.0625 0 L 12.007812 0 C 11.765625 0 11.570312 0.195312 11.570312 0.4375 L 11.570312 3.636719 L 4.429688 3.636719 L 4.429688 0.4375 C 4.429688 0.195312 4.234375 0 3.992188 0 L 1.9375 0 C 1.714844 0 1.527344 0.167969 1.503906 0.394531 L 0.878906 6.335938 C 0.867188 6.464844 0.960938 6.578125 1.089844 6.59375 C 1.097656 6.59375 1.105469 6.59375 1.113281 6.59375 C 1.230469 6.59375 1.335938 6.503906 1.347656 6.382812 L 1.96875 0.46875 L 3.960938 0.46875 L 3.960938 3.667969 C 3.960938 3.910156 4.15625 4.105469 4.398438 4.105469 L 11.601562 4.105469 C 11.84375 4.105469 12.039062 3.910156 12.039062 3.667969 L 12.039062 0.46875 L 14.03125 0.46875 L 14.226562 2.316406 C 14.238281 2.445312 14.355469 2.539062 14.484375 2.527344 C 14.613281 2.511719 14.707031 2.398438 14.695312 2.265625 Z M 14.695312 2.265625 "></path>
        <path style="stroke:#fff;stroke-width:.3;fill-rule:nonzero;fill:rgb(255, 255, 255);fill-opacity:1;" d="M 10.9375 10.75 L 9.476562 8.535156 L 9.855469 8.632812 C 9.980469 8.664062 10.109375 8.589844 10.140625 8.464844 C 10.171875 8.339844 10.097656 8.210938 9.972656 8.179688 L 9.089844 7.949219 L 8.328125 6.792969 C 8.253906 6.683594 8.132812 6.617188 8 6.617188 C 7.867188 6.617188 7.746094 6.683594 7.671875 6.792969 L 5.0625 10.75 C 4.984375 10.871094 4.976562 11.027344 5.042969 11.152344 C 5.113281 11.28125 5.246094 11.359375 5.390625 11.359375 L 10.609375 11.359375 C 10.753906 11.359375 10.886719 11.28125 10.957031 11.152344 C 11.023438 11.027344 11.015625 10.871094 10.9375 10.75 Z M 5.535156 10.890625 L 8 7.152344 L 8.691406 8.199219 L 8.492188 9.0625 C 8.464844 9.191406 8.542969 9.316406 8.667969 9.34375 C 8.6875 9.351562 8.703125 9.351562 8.722656 9.351562 C 8.828125 9.351562 8.925781 9.277344 8.949219 9.167969 L 9.046875 8.742188 L 10.464844 10.890625 Z M 5.535156 10.890625 "></path>
    </g>
</svg>