<svg width="30" height="29" viewBox="0 0 30 29" fill="none" xmlns="http://www.w3.org/2000/svg">
<rect x="0.5" width="29" height="29" rx="6" fill="#FCB326"/>
<path d="M10.2508 10.6616V9.69156C10.2508 7.44156 12.0608 5.23156 14.3108 5.02156C14.936 4.96014 15.5671 5.03029 16.1635 5.2275C16.7599 5.42471 17.3085 5.74461 17.7738 6.16661C18.2391 6.58861 18.6109 7.10336 18.8653 7.67773C19.1197 8.25211 19.251 8.87338 19.2508 9.50156V10.8816M11.7508 24.9916H17.7508C21.7708 24.9916 22.4908 23.3816 22.7008 21.4216L23.4508 15.4216C23.7208 12.9816 23.0208 10.9916 18.7508 10.9916H10.7508C6.4808 10.9916 5.7808 12.9816 6.0508 15.4216L6.8008 21.4216C7.0108 23.3816 7.7308 24.9916 11.7508 24.9916Z" stroke="white" stroke-miterlimit="10" stroke-linecap="round" stroke-linejoin="round"/>
<path d="M18.2458 14.9915H18.2558M11.2458 14.9915H11.2538" stroke="white" stroke-linecap="round" stroke-linejoin="round"/>
</svg>
