<svg xmlns="http://www.w3.org/2000/svg" x="0px" y="0px" viewBox="0 0 29 29">
    <path d="M6,0h17c3.3,0,6,2.7,6,6v17c0,3.3-2.7,6-6,6H6c-3.3,0-6-2.7-6-6V6C0,2.7,2.7,0,6,0z" fill="#FCB326" />
    <path d="M9.8,10.7v-1c0-2.3,1.8-4.5,4.1-4.7c0.6-0.1,1.3,0,1.9,0.2c0.6,0.2,1.1,0.5,1.6,0.9c0.5,0.4,0.8,0.9,1.1,1.5
        c0.3,0.6,0.4,1.2,0.4,1.8v1.4 M11.3,25h6c4,0,4.7-1.6,5-3.6l0.8-6c0.3-2.4-0.4-4.4-4.7-4.4h-8c-4.3,0-5,2-4.7,4.4l0.8,6
        C6.5,23.4,7.2,25,11.3,25z" fill="none" stroke="#ffffff" />
    <path d="M17.7,15L17.7,15 M10.7,15L10.7,15" fill="none" stroke="#ffffff" stroke-linecap="round" />
</svg>
