<svg width="64" height="64" viewBox="0 0 64 64" fill="none" xmlns="http://www.w3.org/2000/svg">
<rect width="64" height="64" rx="5" fill="#9859D8"/>
<path d="M23.7344 28.125C24.8384 28.125 25.7344 27.229 25.7344 26.125V18.325C25.7344 14.838 28.5714 12 32.0584 12C35.5454 12 38.3834 14.838 38.3834 18.325V26.125C38.3834 27.229 39.2784 28.125 40.3834 28.125C41.4874 28.125 42.3834 27.229 42.3834 26.125V18.325C42.3844 12.632 37.7524 8 32.0584 8C26.3664 8 21.7344 12.632 21.7344 18.325V26.125C21.7344 27.229 22.6304 28.125 23.7344 28.125Z" fill="white"/>
<path d="M55 23.6309H44.384V26.1249C44.384 28.3309 42.59 30.1249 40.384 30.1249C38.178 30.1249 36.384 28.3309 36.384 26.1249V23.6309H27.735V26.1249C27.735 28.3309 25.941 30.1249 23.735 30.1249C21.529 30.1249 19.735 28.3309 19.735 26.1249V23.6309H8.99997C8.44797 23.6309 8.10697 24.0659 8.23797 24.6019L15.236 53.0989C15.658 54.7009 17.344 55.9999 19 55.9999H45C46.658 55.9999 48.342 54.7009 48.766 53.0989L55.762 24.6019C55.893 24.0649 55.553 23.6309 55 23.6309Z" fill="white"/>
</svg>
