<svg width="25" height="25" viewBox="0 0 25 25" fill="none" xmlns="http://www.w3.org/2000/svg">
<path d="M8.33011 10.5625C8.88699 10.5625 9.33894 10.1145 9.33894 9.5625V5.6625C9.33894 3.919 10.77 2.5 12.5288 2.5C14.2877 2.5 15.7193 3.919 15.7193 5.6625V9.5625C15.7193 10.1145 16.1707 10.5625 16.7281 10.5625C17.285 10.5625 17.7369 10.1145 17.7369 9.5625V5.6625C17.7374 2.816 15.401 0.5 12.5288 0.5C9.65773 0.5 7.32129 2.816 7.32129 5.6625V9.5625C7.32129 10.1145 7.77324 10.5625 8.33011 10.5625Z" fill="white"/>
<path d="M24.1015 8.31543H18.7466V9.56243C18.7466 10.6654 17.8417 11.5624 16.729 11.5624C15.6162 11.5624 14.7113 10.6654 14.7113 9.56243V8.31543H10.3487V9.56243C10.3487 10.6654 9.44375 11.5624 8.33101 11.5624C7.21828 11.5624 6.31336 10.6654 6.31336 9.56243V8.31543H0.898491C0.620055 8.31543 0.44805 8.53293 0.514128 8.80093L4.04401 23.0494C4.25687 23.8504 5.10731 24.4999 5.94262 24.4999H19.0574C19.8937 24.4999 20.7431 23.8504 20.957 23.0494L24.4858 8.80093C24.5519 8.53243 24.3804 8.31543 24.1015 8.31543Z" fill="white"/>
<path d="M6.72266 17.389L11.6115 22.2779L20.5004 12.0557" stroke="#418923" stroke-width="2" stroke-linecap="round" stroke-linejoin="round"/>
</svg>
