<svg width="29" height="29" viewBox="0 0 29 29" fill="none" xmlns="http://www.w3.org/2000/svg">
<rect width="29" height="29" rx="6" fill="#FCB326"/>
<path d="M6.49876 10.17H5.49876M23.4988 10.17H22.4988M14.4988 5.17V7.17M12.9988 7.17H15.9988M8.49876 17.17H11.4988M17.4988 17.17H20.4988M18.0088 5H10.9888C8.49876 5 7.94876 6.24 7.62876 7.76L6.49876 13.17H22.4988L21.3688 7.76C21.0488 6.24 20.4988 5 18.0088 5ZM24.4888 21.99C24.5988 23.16 23.6588 24.17 22.4588 24.17H20.5788C19.4988 24.17 19.3488 23.71 19.1588 23.14L18.9588 22.54C18.6788 21.72 18.4988 21.17 17.0588 21.17H11.9388C10.4988 21.17 10.2888 21.79 10.0388 22.54L9.83876 23.14C9.64876 23.71 9.49876 24.17 8.41876 24.17H6.53876C5.33876 24.17 4.39876 23.16 4.50876 21.99L5.06876 15.9C5.20876 14.4 5.49876 13.17 8.11876 13.17H20.8788C23.4988 13.17 23.7888 14.4 23.9288 15.9L24.4888 21.99Z" stroke="white" stroke-linecap="round" stroke-linejoin="round"/>
</svg>
