<svg width="211" height="164" viewBox="0 0 211 164" fill="none" xmlns="http://www.w3.org/2000/svg">
<path d="M106.623 163.077L106.623 163.077H106.636C114.562 163.077 121.96 163.077 129.364 163.083H129.365C132.737 163.079 136.122 163.134 139.513 163.188C150.586 163.368 161.733 163.548 172.783 161.671C184.529 159.677 194.911 155.089 201.484 144.271C205.706 137.357 207.428 129.693 208.391 121.931C210.706 103.352 209.479 84.9796 203.86 67.035C197.453 46.5507 185.78 29.7924 167.721 17.7593C155.239 9.44238 141.392 4.81143 126.696 2.65003L126.695 2.64999C105.06 -0.523961 83.7475 0.759369 63.0789 8.34135C54.0468 11.6029 45.5853 16.2681 38.0061 22.1651L38.0037 22.1669C33.6024 25.6237 29.9547 29.6798 26.2805 33.7654C26.1544 33.9055 26.0283 34.0457 25.9021 34.186C18.6822 42.211 13.4834 51.3181 9.43882 61.0703L9.43871 61.0705C5.72608 70.0341 3.73281 79.5155 2.55682 89.1302L2.55679 89.1304C0.649417 104.764 1.22699 120.279 6.23545 135.356C10.067 146.897 17.9962 154.749 29.5932 158.785C37.8774 161.687 46.4432 162.618 55.0432 162.98C63.7418 163.351 72.4399 163.284 81.0575 163.171C82.1334 163.157 83.208 163.142 84.2812 163.127C91.809 163.023 99.2669 162.919 106.623 163.077ZM77.6021 9.06359C80.7205 8.31139 83.8448 7.69505 87.0017 7.36023C65.412 12.0597 48.283 21.1962 35.2728 34.4759C24.3797 45.5945 16.3999 59.5912 11.0977 76.2596C10.6157 73.5524 11.2198 71.1096 12.2075 68.6997C12.668 67.5762 13.2052 66.4749 13.7511 65.3559C13.8162 65.2224 13.8814 65.0887 13.9467 64.9547C14.5546 63.7057 15.1614 62.4323 15.6406 61.1267L15.6408 61.1261C17.9221 54.8923 21.5577 49.193 25.4608 43.5795L25.4617 43.5782C29.6497 37.5225 34.6995 32.4561 40.1691 27.5449C44.1798 23.993 48.5668 20.8901 53.2518 18.2915L53.2551 18.2897C57.422 15.9462 61.8268 13.719 66.5431 12.4528C68.2918 11.9884 70.0083 11.4157 71.7015 10.8508C71.8386 10.8051 71.9755 10.7594 72.1123 10.7138C73.9467 10.1026 75.7581 9.51035 77.6021 9.06359ZM10.1003 78.3211C10.2443 78.2881 10.3822 78.2329 10.509 78.1577C9.31209 82.1164 8.26216 86.2218 7.35614 90.4712C7.3486 89.423 7.50348 88.3732 7.82137 87.3601L7.82225 87.3573C8.49397 85.1813 8.95096 82.9447 9.18666 80.6796L9.18684 80.6778C9.20859 80.4629 9.21665 80.2258 9.22386 80.0134C9.22651 79.9352 9.22906 79.8603 9.23213 79.7911C9.24461 79.51 9.26609 79.2754 9.31797 79.0733C9.36802 78.8784 9.44116 78.7355 9.54471 78.6251C9.64502 78.5181 9.80862 78.4043 10.1003 78.3211Z" fill="#3E3432" stroke="white" stroke-width="1.28769"/>
<path d="M101.532 144.994C85.674 144.994 69.8225 145.11 53.9646 144.936C47.1656 144.865 40.3086 144.891 33.7736 142.232C27.3351 139.618 23.8326 134.557 21.9719 128.318C17.3168 112.647 17.8963 96.8534 21.2958 81.0212C22.899 73.5526 25.1589 66.2578 28.7194 59.5747C33.1227 51.2401 38.9393 43.733 45.9101 37.3877C46.7857 36.5958 47.8416 35.6044 48.1635 35.2824C48.1635 35.2824 48.8074 34.6386 49.4512 33.9947C51.3828 32.3851 55.5549 30.1444 59.0639 28.2901C74.2458 20.2871 90.4642 17.2353 107.462 17.6667C121.942 18.0337 136.01 20.461 149.228 26.6805C170.745 36.7439 183.738 53.8637 189.79 76.4306C194.095 92.319 194.629 108.994 191.349 125.125C188.773 138.085 181.936 142.509 170.533 144.369C156.781 146.591 142.951 145.187 129.147 145.013C119.933 144.917 110.72 145.013 101.506 145.013L101.532 144.994ZM137.871 81.253C137.478 76.2117 137.993 71.1961 136.956 66.0582C135.521 58.9373 134.117 51.8614 131.49 45.0946C130.589 42.7703 130.499 39.551 127.408 38.7655C120.047 36.8354 112.415 36.1499 104.828 36.7374C102.639 36.9241 102.646 37.7225 103.541 39.6927C105.376 43.7875 107.694 47.7021 108.82 52.0867C110.308 57.8813 112.477 63.4571 113.714 69.3483C114.654 73.8552 115.549 84.968 114.718 89.3526C113.791 94.2136 112.889 98.9395 110.591 103.517C108.292 108.095 105.163 112.158 102.408 116.394C100.476 119.337 98.1775 122.189 95.9691 125.022C94.6815 126.618 95.1321 127.455 97.3083 127.417C101.596 127.333 105.904 127.14 110.185 127.475C115.162 127.874 118.652 126.387 121.91 122.324C126.417 116.71 131.851 111.907 134.503 104.895C136.235 100.337 137.079 95.6108 137.839 90.8914C138.289 87.7558 137.871 84.4851 137.871 81.2787V81.253ZM68.8503 126.58L69.3397 127.488C74.4196 127.488 79.5189 127.211 84.5666 127.578C88.301 127.855 90.2711 125.524 92.0932 123.27C96.1494 118.268 99.9932 113.078 103.605 107.747C107.288 102.403 109.637 96.2545 110.456 89.8161C111.1 84.7941 110.192 79.7914 110.456 74.7888C110.63 71.2218 109.348 67.8932 108.627 64.558C106.824 56.188 102.71 48.5778 99.6842 40.6005C99.1433 39.184 98.2934 37.3298 96.1301 37.4778C89.6096 37.9754 83.1906 39.3818 77.0594 41.6564C76.0485 42.017 75.424 42.4548 75.8876 44.0258C77.0143 47.8245 79.0167 51.2368 80.2979 54.9712C82.4484 61.2551 84.7727 67.5905 85.3779 74.0612C86.4467 85.5024 87.5991 97.1689 82.9313 108.275C80.652 113.696 78.0895 118.976 73.2736 122.742C71.7219 123.985 70.3119 125.331 68.8503 126.606V126.58ZM134.832 127.455V127.584C136.976 127.584 139.12 127.629 141.27 127.584C143.015 127.539 144.831 127.996 146.292 126.354C150.544 121.532 154.386 116.363 157.778 110.902C161.778 104.541 165.225 97.8483 168.08 90.8978C169.542 87.3631 172.046 83.8799 170.906 79.8108C169.271 73.9453 167.166 68.1636 163.605 63.1802C160.624 59.0016 158.564 53.6513 152.512 52.5696C151.868 52.4537 151.926 51.7519 151.868 51.2368C151.876 50.8052 151.792 50.3767 151.621 49.9802C151.45 49.5838 151.196 49.2285 150.876 48.9383C146.45 45.8021 141.67 43.198 136.635 41.18C136.4 41.0781 136.147 41.0255 135.891 41.0255C135.635 41.0255 135.382 41.0781 135.147 41.18C134.555 41.592 134.671 42.4677 134.935 42.957C136.474 45.9637 136.699 49.5178 138.154 52.37C141.199 58.3964 141.187 64.9572 141.863 71.209C143.028 81.9355 143.002 92.8358 139.068 103.273C137.414 107.657 135.637 111.849 132.63 115.609C130.093 118.763 127.479 121.886 124.955 125.028C123.667 126.625 124.015 127.5 126.185 127.468C129.05 127.449 131.941 127.481 134.832 127.481V127.455ZM82.1779 87.685C82.2025 80.4865 81.3573 73.3114 79.6605 66.3157C78.0909 59.5626 75.713 53.0233 72.5782 46.8394C71.4515 44.6052 70.5823 44.264 68.522 45.1782C63.094 47.7356 58.2137 51.3215 54.1513 55.7373C50.4363 59.6712 50.359 59.9867 53.1276 64.6997C56.6236 70.6359 58.3685 77.2096 59.8171 83.8284C61.3705 90.8235 61.8181 98.0189 61.1435 105.153C60.7314 109.434 60.5383 113.98 58.4136 117.778C56.9521 120.392 55.9026 123.27 54.0612 125.672C52.8701 127.23 53.6298 127.642 55.1428 127.713C58.0824 127.963 61.0227 127.241 63.5128 125.659C66.6741 123.67 68.992 120.798 71.6575 118.442C77.7161 113.098 81.0512 105.816 81.4955 97.4972C81.7015 94.2458 81.9655 90.9751 82.1779 87.7108V87.685ZM57.6152 99.7121C57.4736 94.6579 57.4478 89.0628 55.8639 83.5322C54.2028 77.7376 53.2886 71.7047 49.9728 66.4574C48.2601 63.7661 48.2279 63.6824 46.3801 66.4574C41.0104 74.5763 38.8857 83.764 37.8426 93.2157C36.8288 102.626 37.1257 112.132 38.7248 121.461C39.3235 125.06 41.7444 126.38 44.764 127.32C47.1849 128.074 48.4469 126.638 49.8118 125.015C52.0331 122.388 53.2499 119.349 54.6921 116.259C57.1516 111.063 57.5444 105.784 57.6152 99.7378V99.7121ZM173.559 93.5504C172.619 95.0635 171.518 95.0699 171.164 96.2932C169.567 101.708 166.47 106.434 163.618 111.224C160.663 116.195 157.218 120.882 153.902 125.633C152.853 127.14 153.362 127.533 154.881 127.481C157.343 127.496 159.804 127.377 162.253 127.127C169.265 126.123 172.336 123.361 173.611 116.426C174.95 109.132 174.718 101.779 173.559 93.5504Z" fill="white"/>
<path d="M94.8479 6.53109C44.5249 14.6693 16.7365 44.9752 7.33632 93.9333C6.57584 91.7451 6.5397 89.3703 7.23329 87.16C7.8926 85.0242 8.34115 82.8289 8.5725 80.6056C8.70127 79.524 8.39221 78.1268 9.96963 77.689C10.075 77.6668 10.1747 77.623 10.2623 77.5603C10.3499 77.4977 10.4236 77.4175 10.4786 77.3249C10.5337 77.2324 10.5689 77.1294 10.5822 77.0225C10.5954 76.9156 10.5864 76.8071 10.5556 76.7039C9.26786 70.6775 13.1825 65.9839 15.0625 60.8975C17.3739 54.5814 21.0503 48.8254 24.9584 43.2046C29.2078 37.0881 34.3006 31.9823 39.7669 27.0569C43.8132 23.4734 48.2391 20.3429 52.9657 17.7211C57.1443 15.3711 61.6061 13.0919 66.4028 11.8235C70.1371 10.832 73.7298 9.33826 77.477 8.43043C83.1364 7.05904 88.8859 6.12546 94.8479 6.53109Z" fill="white"/>
<path d="M137.872 81.2841C137.872 84.5033 138.291 87.7741 137.776 90.8967C136.997 95.6161 136.172 100.342 134.44 104.9C131.788 111.912 126.347 116.715 121.847 122.329C118.589 126.405 115.099 127.892 110.122 127.48C105.867 127.145 101.559 127.338 97.2454 127.422C95.0692 127.461 94.6701 126.624 95.9063 125.027C98.1404 122.207 100.458 119.342 102.345 116.399C105.1 112.169 108.217 108.132 110.528 103.523C112.839 98.9126 113.747 94.2254 114.655 89.3579C115.486 84.9733 114.591 73.8477 113.651 69.3536C112.414 63.4624 110.245 57.8867 108.757 52.0921C107.631 47.7075 105.313 43.7929 103.478 39.698C102.596 37.7279 102.589 36.9295 104.766 36.7428C112.353 36.1553 119.984 36.8408 127.345 38.7709C130.436 39.5564 130.526 42.7756 131.427 45.0999C134.054 51.8667 135.458 58.9426 136.894 66.0636C137.982 71.2272 137.479 76.2428 137.872 81.2841Z" fill="#FF4B23"/>
<path d="M68.8574 126.598C70.319 125.31 71.729 123.977 73.2613 122.786C78.0837 119.02 80.6462 113.74 82.919 108.319C87.5869 97.2125 86.4344 85.546 85.3657 74.1048C84.7604 67.6341 82.4361 61.2987 80.2857 55.0147C78.998 51.2547 77.0021 47.8423 75.8754 44.0694C75.4118 42.4984 76.0363 42.0606 77.0471 41.7C83.1848 39.4259 89.6104 38.0215 96.1372 37.5279C98.3005 37.3798 99.1504 39.2341 99.6913 40.6505C102.717 48.6278 106.832 56.2509 108.634 64.6081C109.355 67.9432 110.637 71.2719 110.463 74.8388C110.212 79.8415 111.107 84.8442 110.463 89.8662C109.644 96.3045 107.295 102.453 103.612 107.797C100 113.128 96.1565 118.318 92.1003 123.32C90.2782 125.574 88.3081 127.905 84.5737 127.628C79.526 127.261 74.4267 127.538 69.3468 127.538L68.8574 126.598Z" fill="#FF4B23"/>
<path d="M134.834 127.486C131.943 127.486 129.04 127.454 126.162 127.486C123.992 127.518 123.638 126.642 124.932 125.046C127.507 121.904 130.083 118.781 132.607 115.626C135.626 111.866 137.403 107.675 139.045 103.29C142.979 92.8533 143.005 81.9529 141.839 71.2265C141.195 64.9747 141.195 58.4139 138.131 52.3875C136.682 49.5353 136.457 45.9812 134.912 42.9745C134.648 42.4594 134.532 41.6095 135.124 41.1974C135.359 41.0955 135.612 41.043 135.868 41.043C136.123 41.043 136.377 41.0955 136.611 41.1974C141.65 43.2191 146.432 45.8275 150.86 48.9687C151.179 49.2589 151.433 49.6142 151.604 50.0106C151.775 50.4071 151.859 50.8355 151.851 51.2672C151.896 51.7823 151.851 52.4841 152.495 52.6C158.547 53.6816 160.607 59.0384 163.588 63.2106C167.149 68.1939 169.254 73.9757 170.89 79.8411C172.029 83.9102 169.525 87.3935 168.063 90.9282C165.208 97.8787 161.761 104.571 157.762 110.932C154.369 116.393 150.527 121.562 146.275 126.385C144.814 128.027 142.998 127.569 141.253 127.615C139.116 127.672 136.972 127.615 134.815 127.615L134.834 127.486Z" fill="#FF4B23"/>
<path d="M82.1851 87.7287C81.9662 90.9994 81.7086 94.2637 81.5412 97.5409C81.097 105.859 77.7619 113.141 71.7033 118.485C69.0378 120.842 66.7199 123.713 63.5586 125.703C61.0685 127.285 58.1282 128.006 55.1886 127.757C53.6756 127.686 52.9158 127.274 54.1069 125.716C55.9483 123.314 56.9978 120.436 58.4593 117.822C60.584 114.023 60.7772 109.452 61.1893 105.196C61.8638 98.0625 61.4163 90.8672 59.863 83.872C58.4143 77.2533 56.6437 70.6796 53.1734 64.7433C50.4049 60.0304 50.4821 59.7149 54.1971 55.781C58.2595 51.3651 63.1398 47.7792 68.5678 45.2219C70.6281 44.2819 71.4972 44.6489 72.624 46.883C75.7587 53.067 78.1367 59.6063 79.7063 66.3594C81.39 73.3567 82.2223 80.5317 82.1851 87.7287V87.7287Z" fill="#FF4B23"/>
<path d="M57.6229 99.7377C57.5521 105.803 57.1593 111.063 54.6998 116.31C53.2576 119.401 52.0408 122.44 49.8195 125.067C48.4546 126.689 47.1926 128.125 44.7717 127.372C41.7521 126.432 39.3312 125.112 38.7325 121.513C37.1334 112.183 36.8365 102.678 37.8503 93.267C38.8934 83.8153 41.0181 74.6276 46.3878 66.5087C48.2356 63.708 48.2678 63.7917 49.9805 66.5087C53.3092 71.7561 54.2105 77.7761 55.8716 83.5835C57.4555 89.0884 57.507 94.6835 57.6229 99.7377Z" fill="#FF4B23"/>
<path d="M173.567 93.543C174.726 101.778 174.958 109.13 173.619 116.419C172.331 123.353 169.273 126.115 162.261 127.12C159.812 127.37 157.351 127.488 154.889 127.474C153.37 127.525 152.861 127.132 153.911 125.626C157.226 120.874 160.671 116.187 163.626 111.217C166.478 106.426 169.575 101.701 171.172 96.2858C171.526 95.056 172.627 95.0496 173.567 93.543Z" fill="#FF4B23"/>
</svg>
