<svg width="168" height="60" viewBox="0 0 168 60" fill="none" xmlns="http://www.w3.org/2000/svg">
<path d="M150.612 13.1666C146.598 13.074 143.027 13.0619 139.463 12.8875C136.79 12.7567 134.116 12.6821 131.442 12.6636C128.943 12.6432 126.446 12.5614 123.946 12.5156C120.519 12.4507 117.089 12.4314 113.665 12.2641C109.235 12.0475 104.801 12.0909 100.369 11.9429C94.0031 11.7299 87.6342 11.5999 81.2666 11.4314C78.7077 11.3641 76.1488 11.281 73.5898 11.21C70.8359 11.1338 68.0812 11.0608 65.3257 10.991C60.1389 10.8551 54.9508 10.7588 49.7651 10.5735C44.5056 10.3858 39.2436 10.3701 33.9829 10.2281C27.1103 10.038 20.234 9.9237 13.3602 9.73959C9.55144 9.63731 5.74516 9.452 1.93645 9.31844C1.44113 9.30039 1.1081 9.08499 0.834403 8.69753C0.0581291 7.5977 -0.078718 6.34626 0.0351194 5.07677C0.110204 4.24167 0.0157428 3.41379 0.0908271 2.58592C0.147746 1.95177 0.132002 1.29717 0.60794 0.780953C1.28249 0.0541542 2.14838 -0.0914463 3.07724 0.0469343C3.45431 0.110666 3.83563 0.146463 4.21804 0.154029C6.74184 0.166062 9.24989 0.4344 11.764 0.58361C14.3169 0.734425 16.8689 0.900883 19.4202 1.08298C22.9164 1.33929 26.4139 1.55227 29.9114 1.76887C34.15 2.0324 38.3971 2.3248 42.6406 2.60036C46.9604 2.88193 51.2813 3.14666 55.5987 3.44267C58.372 3.63039 61.1428 3.84097 63.9185 4.00462C64.8183 4.05757 65.7193 4.14781 66.6215 4.20798C67.0854 4.23806 67.4923 4.52204 68.0045 4.50881C73.0267 4.37283 78.0089 5.00216 83.0093 5.3066C86.7102 5.53042 90.4111 5.75905 94.1121 5.99249C98.9816 6.29211 103.851 6.56887 108.718 6.89377C113.481 7.21024 118.241 7.59409 123.009 7.91056C126.848 8.16687 130.693 8.3594 134.533 8.59525C138.695 8.85035 142.859 9.07657 147.015 9.40989C148.658 9.54105 150.313 9.57835 151.95 9.83105C152.452 9.90926 152.983 9.78291 153.507 9.86714C154.065 9.94631 154.575 10.2217 154.946 10.6433C155.309 11.0584 155.45 11.5614 155.228 12.0873C154.986 12.6492 154.588 12.8971 153.936 13.0499C152.666 13.3652 151.42 13.1089 150.612 13.1666ZM136.778 9.452C135.46 9.2342 134.126 9.31242 132.791 9.15238C130.62 8.89246 128.411 9.07296 126.22 8.79139C124.525 8.56877 122.786 8.67105 121.065 8.55072C118.82 8.3955 116.566 8.22222 114.312 8.18973C111.447 8.15243 108.606 7.76617 105.748 7.65426C104.701 7.61335 103.638 7.70119 102.612 7.53393C100.36 7.17895 98.0758 7.42202 95.8232 7.07667C94.4802 6.8709 93.1033 6.95634 91.7408 6.8697C88.3499 6.66032 84.959 6.50871 81.5681 6.23556C80.0507 6.11522 78.5248 6.22593 77.005 6.00813C76.0361 5.86855 75.0285 5.97684 74.0452 5.89863C71.5831 5.70129 69.1126 5.65797 66.6579 5.39324C65.0617 5.22237 63.4498 5.28855 61.8416 5.15258C59.4377 4.95523 57.0107 5.00698 54.6105 4.73503C52.3313 4.47752 50.0388 4.48233 47.756 4.26333C46.1744 4.11292 44.5577 4.08404 42.9567 4.01545C40.3868 3.90474 37.8158 3.78682 35.2496 3.61234C32.5212 3.42703 29.7879 3.35965 27.0642 3.10214C25.6837 2.97218 24.2946 3.03836 22.9055 2.88554C20.9873 2.68098 19.0448 2.73152 17.1204 2.52696C15.7471 2.37775 14.3593 2.41986 12.9787 2.33322C10.5663 2.18281 8.15391 2.00352 5.7391 1.89883C5.5199 1.8892 5.29102 1.9253 5.09241 1.79414C4.69155 1.52821 4.53049 1.77128 4.48689 2.11302C4.40454 2.70625 4.36579 3.3055 4.30766 3.90234C4.27132 4.27777 4.42876 4.45586 4.82114 4.45827C6.67281 4.46669 8.51843 4.52325 10.3665 4.67968C12.3501 4.84694 14.3471 4.74225 16.3405 4.90229C19.1877 5.12971 22.0566 4.9793 24.9098 5.26328C26.8293 5.4534 28.7657 5.32585 30.6986 5.46905C33.5094 5.67842 36.3359 5.73378 39.1564 5.75423C40.5019 5.76386 41.8486 5.72896 43.1965 5.76988C44.3409 5.80477 45.4647 5.96962 46.5983 6.1068C48.3906 6.3258 50.2108 6.18261 52.0237 6.3234C55.1155 6.56406 58.2278 6.42087 61.3257 6.70124C63.0466 6.85767 64.7832 6.73854 66.5137 6.90339C68.9189 7.13322 71.3409 7.00206 73.7558 7.17775C76.8209 7.40156 79.903 7.2692 82.9717 7.55198C85.0487 7.7433 87.1389 7.60853 89.2292 7.79986C91.7893 8.04052 94.3748 7.87085 96.9519 8.05496C99.7942 8.25712 102.657 8.16567 105.498 8.38226C106.995 8.50259 108.494 8.47131 109.994 8.59525C112.658 8.81545 115.342 8.83591 118.017 8.95624C120.197 9.05491 122.391 9.0874 124.577 9.22458C126.125 9.32205 127.692 9.19089 129.231 9.34491C131.744 9.58918 134.257 9.52661 136.778 9.452Z" fill="#967D75"/>
<path d="M95.2691 48.3126C100.509 48.1826 105.751 48.0719 110.991 47.9516C114.745 47.8626 118.491 47.8313 122.239 47.7013C127.64 47.5184 133.044 47.4943 138.446 47.3536C142.215 47.2549 145.985 47.1923 149.755 47.1129C151.005 47.0864 152.254 47.0491 153.509 47.0202C154.129 47.0058 154.667 47.2092 155.04 47.7073C155.636 48.5003 155.211 49.5255 154.145 50.0273C153.321 50.4148 152.441 50.2969 151.588 50.3642C148.876 50.5824 146.162 50.769 143.445 50.9238C138.48 51.2042 133.508 51.5098 128.55 51.9177C125.159 52.1957 121.753 52.3569 118.355 52.5795C116.063 52.7287 113.772 52.9044 111.48 53.05C107.659 53.2907 103.838 53.5121 100.018 53.7564C95.7147 54.0319 91.4192 54.3267 87.1115 54.6095L70.7625 55.6817C66.0564 55.9921 61.3504 56.2966 56.6467 56.6227C53.7535 56.8236 50.8604 57.0041 47.9636 57.1449C43.6172 57.3555 39.2756 57.6659 34.9328 57.9367C28.2737 58.3522 21.613 58.7686 14.9507 59.1857C10.8082 59.448 6.66479 59.7168 2.52063 59.9919C2.27035 60.0178 2.01749 59.9829 1.78378 59.8902C1.55006 59.7976 1.34246 59.65 1.1788 59.4601C0.563592 58.7946 0.276577 57.992 0.20997 57.1148C0.117931 55.7539 0.0440576 54.3905 0.00893757 53.0344C-0.0237604 51.7107 0.656842 51.0116 1.97566 50.8504C3.5815 50.653 5.1946 50.6759 6.80649 50.6386C12.7733 50.5002 18.7413 50.3859 24.708 50.2367C32.0049 50.0538 39.301 49.8556 46.5963 49.6423C52.9857 49.4545 59.3752 49.2817 65.7646 49.1236C70.0577 49.0117 74.3508 48.9155 78.644 48.8036C84.1857 48.6604 89.7274 48.4775 95.2691 48.3126ZM131.127 51.1127C131.127 51.0513 131.127 50.9924 131.127 50.9274C131.076 50.9045 131.024 50.86 130.973 50.8612C128.43 50.8781 125.886 50.9033 123.343 51.0935C120.855 51.2788 118.344 51.0934 115.855 51.3919C114.973 51.4966 114.102 51.2715 113.191 51.4304C111.98 51.6398 110.723 51.5411 109.482 51.653C107.128 51.866 104.759 51.7168 102.388 51.937C99.7233 52.1861 97.036 52.008 94.3632 52.2534C92.2451 52.4484 90.1137 52.3148 87.9823 52.4857C84.6907 52.7492 81.3785 52.7396 78.076 52.8623C76.2376 52.9309 74.4017 53.0404 72.5646 53.1138C70.8388 53.1824 69.1143 53.1752 67.3886 53.334C65.3298 53.5241 63.2529 53.3063 61.1857 53.5663C58.6122 53.8887 56.0109 53.6168 53.4241 53.8936C50.4886 54.2052 47.5252 53.8827 44.5739 54.2052C42.021 54.4844 39.4342 54.275 36.8644 54.5193C34.6664 54.7287 32.4465 54.5506 30.2364 54.7852C28.7396 54.944 27.2149 54.849 25.7035 54.8839C25.4359 54.8839 25.1549 54.6625 24.995 54.7226C24.1255 55.0511 23.2294 55.0836 22.3223 55.1113C19.7864 55.1967 17.2493 55.2617 14.7133 55.3652C11.6773 55.4855 8.63999 55.6636 5.60029 55.7142C3.95449 55.7418 4.31417 55.7803 4.38926 57.0907C4.45223 58.2784 4.51036 58.2748 5.7214 58.2724C5.92335 58.2785 6.12549 58.2737 6.32692 58.258C8.54432 58.0173 10.7763 57.986 12.9985 57.7706C15.0985 57.5673 17.2214 57.7153 19.3298 57.4734C20.8666 57.2977 22.4252 57.2412 23.9681 57.1858C26.4192 57.0968 28.8582 56.7839 31.313 56.8164C31.4913 56.8239 31.6699 56.8175 31.8471 56.7971C34.0984 56.459 36.3812 56.5757 38.6422 56.3158C40.6768 56.086 42.7343 56.2436 44.7858 55.9945C47.2902 55.6901 49.8322 55.7214 52.3524 55.4855C54.0478 55.3267 55.7578 55.4302 57.4641 55.2232C59.4369 54.9825 61.4412 55.1269 63.4273 54.8815C64.8939 54.701 66.3846 54.7611 67.8682 54.6408C71.0883 54.364 74.3278 54.3255 77.5564 54.0392C79.1744 53.8936 80.802 53.9922 82.4297 53.7913C84.4473 53.541 86.4975 53.778 88.5297 53.4531C89.8703 53.239 91.2508 53.3713 92.6157 53.2053C94.0278 53.0332 95.4653 53.0356 96.8907 52.9453C100.174 52.736 103.463 52.6481 106.744 52.3654C108.283 52.2318 109.835 52.2631 111.379 52.1247C113.196 51.9586 115.022 52.0044 116.846 51.8046C118.854 51.5856 120.893 51.6951 122.917 51.499C123.864 51.4075 124.903 51.6373 125.775 51.4508C127.181 51.15 128.573 51.2523 129.964 51.1211C130.347 51.0814 130.739 51.1127 131.127 51.1127Z" fill="#967D75"/>
<path d="M147.771 45.2441V45.2441C146.388 45.2147 144.985 45.234 143.569 45.2535C143.367 45.2563 143.165 45.2591 142.963 45.2617C141.342 45.2829 139.706 45.2953 138.07 45.226C138.07 45.226 138.07 45.226 138.07 45.226L138.075 45.105C136.462 45.0376 134.864 44.8643 133.323 44.3277L147.771 45.2441ZM147.771 45.2441H147.774M147.771 45.2441H147.774M147.774 45.2441C149.265 45.2441 150.656 45.2441 152.049 45.2453H152.049M147.774 45.2441L152.049 45.2453M152.049 45.2453C152.683 45.2445 153.32 45.2547 153.958 45.265C156.041 45.2985 158.137 45.3322 160.216 44.9813C162.425 44.6088 164.378 43.7513 165.614 41.7291L152.049 45.2453ZM130.545 26.148C130.447 26.4111 130.321 26.6686 130.194 26.9273C129.862 27.6033 129.526 28.2876 129.697 29.1022M130.545 26.148L144.947 16.0909C135.952 17.7381 130.922 23.2601 129.143 32.0608C129.115 31.9332 129.101 31.8035 129.1 31.6737M130.545 26.148C130.979 24.9676 131.671 23.8918 132.406 22.8413C133.202 21.6982 134.16 20.744 135.191 19.8234L130.545 26.148ZM129.697 29.1022C129.703 29.1215 129.704 29.1417 129.702 29.1617C129.699 29.1817 129.693 29.2009 129.682 29.2182C129.672 29.2355 129.658 29.2505 129.642 29.2622C129.625 29.2739 129.606 29.2821 129.587 29.2863M129.697 29.1022L129.783 29.0842C129.774 29.1122 129.765 29.1403 129.756 29.1685C129.748 29.1948 129.739 29.2211 129.731 29.2475M129.697 29.1022L129.785 29.0756C129.791 29.0562 129.798 29.0369 129.804 29.0176M129.587 29.2863C129.343 29.3536 129.336 29.5422 129.33 29.7195C129.329 29.7578 129.328 29.7955 129.324 29.8314C129.28 30.2469 129.196 30.6572 129.072 31.0563C128.969 31.3829 128.951 31.7287 129.019 32.0613C129.046 31.9314 129.072 31.8022 129.1 31.6737M129.587 29.2863L129.611 29.4048C129.613 29.4045 129.614 29.4042 129.616 29.4038M129.587 29.2863L129.619 29.403C129.618 29.4033 129.617 29.4036 129.616 29.4038M129.1 31.6737C129.27 30.8798 129.468 30.1129 129.693 29.3734M129.1 31.6737C129.099 31.4779 129.128 31.282 129.187 31.0928L129.188 31.0923C129.314 30.6855 129.4 30.2674 129.444 29.844L129.444 29.8436C129.448 29.8034 129.45 29.759 129.451 29.7193C129.452 29.7047 129.452 29.6907 129.453 29.6778C129.455 29.6253 129.459 29.5816 129.469 29.544C129.478 29.5077 129.492 29.4812 129.511 29.4606C129.53 29.4407 129.561 29.4194 129.616 29.4038M129.693 29.3734C129.669 29.3874 129.643 29.3977 129.616 29.4038M129.693 29.3734C129.695 29.3642 129.698 29.355 129.701 29.3458M129.693 29.3734C129.699 29.3695 129.706 29.3654 129.712 29.3609L129.701 29.3458M129.701 29.3458C129.711 29.313 129.721 29.2802 129.731 29.2475M129.701 29.3458L129.712 29.3609C129.742 29.3395 129.767 29.3121 129.786 29.2804L129.731 29.2475M129.731 29.2475L129.786 29.2804C129.805 29.2487 129.817 29.2134 129.822 29.1767C129.826 29.142 129.824 29.1068 129.814 29.0731C129.811 29.0545 129.807 29.036 129.804 29.0176M129.804 29.0176C129.713 28.512 129.827 28.0557 130.012 27.6054C130.099 27.3955 130.2 27.1897 130.303 26.9805C130.315 26.9556 130.327 26.9306 130.339 26.9056C130.454 26.6721 130.568 26.4341 130.658 26.19L130.658 26.1899C131.087 25.025 131.771 23.9599 132.505 22.9108L132.505 22.9105C133.293 21.7788 134.243 20.8319 135.272 19.914C136.026 19.2503 136.851 18.6704 137.732 18.1847L137.733 18.1844C138.517 17.7464 139.345 17.3302 140.232 17.0935C140.561 17.0067 140.884 16.8997 141.203 16.7941C141.229 16.7855 141.254 16.777 141.28 16.7684C141.625 16.6542 141.966 16.5435 142.313 16.46C142.895 16.3205 143.478 16.206 144.067 16.1431C140.013 17.0223 136.796 18.7287 134.351 21.2078C132.302 23.2859 130.801 25.902 129.804 29.0176Z" fill="#3E3432" stroke="white" stroke-width="0.242207"/>
<path d="M136.777 9.45071C134.256 9.52532 131.743 9.58789 129.225 9.33038C127.686 9.17515 126.119 9.30631 124.571 9.21005C122.385 9.07287 120.197 9.04038 118.011 8.94171C115.336 8.82138 112.65 8.80453 109.988 8.58072C108.489 8.46039 106.989 8.48205 105.493 8.36773C102.651 8.15114 99.7886 8.2474 96.9463 8.04043C94.3692 7.85633 91.7836 8.02118 89.2235 7.78533C87.1333 7.594 85.043 7.72877 82.9661 7.53745C79.8973 7.25467 76.8152 7.38703 73.7501 7.16322C71.3353 6.98753 68.9132 7.1187 66.5081 6.88886C64.7775 6.72401 63.0409 6.84314 61.32 6.68671C58.2222 6.40634 52.018 6.30887 52.018 6.30887L46.5926 6.09227C46.5926 6.09227 44.5238 5.82907 43.1908 5.75535C41.6155 5.66822 39.1508 5.7397 39.1508 5.7397C39.1508 5.7397 33.5037 5.66389 30.6929 5.45452C28.7553 5.31132 26.8236 5.43887 24.9042 5.24875C22.051 4.96597 19.182 5.11639 16.3349 4.88776C14.3415 4.72772 12.3445 4.83241 10.3608 4.66515C8.51278 4.51594 6.66716 4.45938 4.81549 4.45096C4.42069 4.45096 4.26568 4.27046 4.30201 3.89503C4.36014 3.29337 4.39889 2.69894 4.48124 2.10571C4.52968 1.76397 4.69075 1.5209 5.08676 1.78683C5.28537 1.91799 5.51426 1.88189 5.73345 1.89152C8.14826 1.9962 10.5606 2.1755 12.973 2.32591C14.3536 2.41255 15.7415 2.37043 17.1148 2.51964C19.0391 2.73022 20.9816 2.67968 22.8987 2.88906C24.2877 3.04188 25.6768 2.9757 27.0574 3.10566C29.781 3.36316 32.5143 3.43055 35.2428 3.61586C37.809 3.79034 40.38 3.90826 42.9498 4.01897C44.5508 4.08756 46.1675 4.11644 47.7491 4.26685C50.0319 4.48585 52.3244 4.48104 54.6036 4.73855C57.0039 5.0105 59.4308 4.95875 61.8347 5.1561C63.443 5.28846 65.0549 5.22228 66.651 5.39676C69.1106 5.66028 71.5811 5.70481 74.0383 5.90215C75.0217 5.98036 76.0268 5.87207 76.9981 6.01165C78.5179 6.22945 80.0438 6.11754 81.5613 6.23908C84.9522 6.50982 88.3431 6.66384 91.734 6.87322C93.0964 6.95745 94.4733 6.87322 95.8164 7.08019C98.0689 7.42554 100.353 7.18247 102.605 7.53745C103.631 7.69989 104.694 7.61205 105.741 7.65778C108.599 7.76969 111.44 8.15595 114.305 8.19325C116.559 8.22333 118.813 8.39661 121.058 8.55424C122.779 8.67458 124.513 8.57229 126.213 8.79491C128.404 9.0825 130.613 8.902 132.784 9.1559C134.125 9.31113 135.46 9.23291 136.777 9.45071Z" fill="white"/>
<path d="M131.128 51.1106C130.74 51.1106 130.348 51.0793 129.963 51.1166C128.571 51.2477 127.177 51.1455 125.774 51.4463C124.902 51.6328 123.863 51.403 122.916 51.4944C120.892 51.6906 118.853 51.5811 116.845 51.8001C115.021 51.9998 113.195 51.9541 111.378 52.1201C109.834 52.2621 108.281 52.2308 106.742 52.3608C103.461 52.6436 100.172 52.7314 96.8892 52.9408C95.4638 53.0311 94.0263 53.0286 92.6142 53.2007C91.2494 53.3668 89.8688 53.2344 88.5282 53.4486C86.496 53.7735 84.4458 53.5364 82.4282 53.7867C80.8005 53.9877 79.1729 53.889 77.555 54.0346C74.3312 54.3234 71.0917 54.3619 67.8667 54.6363C66.3831 54.7626 64.8924 54.6988 63.4258 54.8769C61.4397 55.1176 59.4354 54.9792 57.4627 55.2187C55.7563 55.4256 54.0475 55.3222 52.3509 55.481C49.8307 55.7217 47.2887 55.6856 44.7843 55.99C42.7328 56.2391 40.6753 56.0814 38.6407 56.3113C36.3797 56.5664 34.0969 56.4497 31.8456 56.7926C31.6651 56.8131 31.4833 56.8191 31.3018 56.8106C28.8471 56.7782 26.408 57.091 23.9569 57.1801C22.414 57.2354 20.8554 57.292 19.3186 57.4677C17.2102 57.7083 15.0873 57.5615 12.9873 57.7649C10.7651 57.9803 8.53314 58.0055 6.31574 58.2522C6.11431 58.2679 5.91217 58.2727 5.71022 58.2667C4.49918 58.2667 4.44347 58.2727 4.37808 57.085C4.30905 55.7746 3.94937 55.7361 5.58911 55.7084C8.62882 55.6579 11.6661 55.4846 14.7022 55.3595C17.2381 55.256 19.7752 55.191 22.3111 55.1056C23.2182 55.0755 24.1143 55.0454 24.9839 54.7169C25.1437 54.6567 25.4247 54.8841 25.6923 54.8781C27.2037 54.8432 28.7284 54.9383 30.2252 54.7795C32.4354 54.5448 34.6552 54.7229 36.8532 54.5135C39.423 54.2729 42.0098 54.4786 44.5627 54.1995C47.514 53.877 50.4774 54.1995 53.4129 53.8878C55.9997 53.611 58.601 53.8878 61.1745 53.5605C63.2417 53.3006 65.3186 53.5184 67.3774 53.3283C69.1031 53.1694 70.8277 53.1767 72.5534 53.1081C74.3905 53.0347 76.2264 52.9252 78.0648 52.8566C81.3673 52.7362 84.6795 52.7435 87.9711 52.4799C90.1025 52.3091 92.2339 52.4426 94.352 52.2477C97.0248 52.007 99.7133 52.1803 102.376 51.9312C104.744 51.711 107.116 51.8602 109.471 51.6472C110.712 51.5353 111.967 51.634 113.18 51.4246C114.088 51.2682 114.959 51.4908 115.844 51.3861C118.333 51.0925 120.843 51.273 123.332 51.0877C125.875 50.8976 128.418 50.8723 130.962 50.8555C131.013 50.8555 131.065 50.8988 131.115 50.9216C131.126 50.9878 131.128 51.0492 131.128 51.1106Z" fill="white"/>
<path d="M146.815 41.8627C143.832 41.8627 140.851 41.8843 137.868 41.8518C136.589 41.8386 135.3 41.8434 134.07 41.3465C132.859 40.8579 132.2 39.9121 131.85 38.7461C130.975 35.8172 131.084 32.8655 131.723 29.9066C132.025 28.5107 132.45 27.1474 133.12 25.8984C133.948 24.3407 135.042 22.9377 136.353 21.7518C136.518 21.6038 136.716 21.4185 136.777 21.3583C136.777 21.3583 136.898 21.238 137.019 21.1176C137.382 20.8168 138.167 20.398 138.827 20.0515C141.683 18.5558 144.733 17.9854 147.931 18.066C150.654 18.1346 153.3 18.5883 155.787 19.7507C159.834 21.6314 162.278 24.831 163.416 29.0486C164.226 32.0181 164.326 35.1344 163.709 38.1493C163.225 40.5715 161.939 41.3982 159.794 41.746C157.207 42.1611 154.606 41.8988 152.009 41.8663C150.276 41.8482 148.543 41.8663 146.81 41.8663L146.815 41.8627ZM153.65 29.9499C153.576 29.0077 153.673 28.0703 153.478 27.1101C153.208 25.7792 152.944 24.4568 152.45 23.1921C152.281 22.7577 152.264 22.1561 151.682 22.0093C150.298 21.6485 148.862 21.5204 147.435 21.6302C147.024 21.6651 147.025 21.8143 147.193 22.1825C147.538 22.9478 147.974 23.6795 148.186 24.4989C148.466 25.5819 148.874 26.624 149.107 27.725C149.283 28.5673 149.452 30.6442 149.295 31.4637C149.121 32.3722 148.952 33.2554 148.519 34.111C148.087 34.9665 147.498 35.7258 146.98 36.5176C146.617 37.0675 146.184 37.6006 145.769 38.13C145.527 38.4284 145.611 38.5849 146.021 38.5776C146.827 38.562 147.638 38.5259 148.443 38.5885C149.379 38.6631 150.035 38.3851 150.648 37.6258C151.496 36.5765 152.518 35.6789 153.017 34.3685C153.343 33.5165 153.501 32.6333 153.644 31.7513C153.729 31.1653 153.65 30.554 153.65 29.9547V29.9499ZM140.668 38.4212L140.76 38.5909C141.716 38.5909 142.675 38.5391 143.624 38.6077C144.327 38.6595 144.697 38.2239 145.04 37.8027C145.803 36.8677 146.526 35.8979 147.205 34.9015C147.898 33.9027 148.34 32.7536 148.494 31.5503C148.615 30.6117 148.444 29.6768 148.494 28.7418C148.526 28.0752 148.285 27.453 148.15 26.8297C147.811 25.2654 147.037 23.8431 146.468 22.3522C146.366 22.0875 146.206 21.7409 145.799 21.7686C144.573 21.8616 143.365 22.1244 142.212 22.5496C142.022 22.6169 141.905 22.6988 141.992 22.9924C142.204 23.7023 142.58 24.3401 142.821 25.038C143.226 26.2124 143.663 27.3965 143.777 28.6058C143.978 30.7441 144.195 32.9245 143.317 35.0002C142.888 36.0134 142.406 37.0001 141.5 37.704C141.208 37.9363 140.943 38.1878 140.668 38.426V38.4212ZM153.079 38.5849V38.6089C153.482 38.6089 153.885 38.6173 154.29 38.6089C154.618 38.6005 154.959 38.6859 155.234 38.3791C156.034 37.4778 156.757 36.5118 157.395 35.4912C158.147 34.3023 158.795 33.0515 159.333 31.7525C159.607 31.0919 160.079 30.4409 159.864 29.6804C159.557 28.5842 159.161 27.5036 158.491 26.5722C157.93 25.7913 157.543 24.7913 156.404 24.5892C156.283 24.5675 156.294 24.4363 156.283 24.3401C156.285 24.2594 156.269 24.1793 156.237 24.1052C156.205 24.0311 156.157 23.9647 156.097 23.9105C155.264 23.3243 154.365 22.8377 153.418 22.4605C153.374 22.4415 153.326 22.4316 153.278 22.4316C153.23 22.4316 153.182 22.4415 153.138 22.4605C153.027 22.5375 153.048 22.7012 153.098 22.7926C153.388 23.3546 153.43 24.0188 153.704 24.5519C154.276 25.6782 154.274 26.9043 154.401 28.0727C154.62 30.0775 154.616 32.1147 153.876 34.0652C153.564 34.8847 153.23 35.668 152.665 36.3708C152.187 36.9604 151.696 37.544 151.221 38.1312C150.979 38.4296 151.044 38.5933 151.452 38.5873C151.991 38.5837 152.535 38.5897 153.079 38.5897V38.5849ZM143.175 31.152C143.179 29.8067 143.021 28.4657 142.701 27.1582C142.406 25.8961 141.959 24.674 141.369 23.5182C141.157 23.1007 140.994 23.0369 140.606 23.2078C139.585 23.6857 138.667 24.3559 137.903 25.1812C137.204 25.9164 137.19 25.9754 137.711 26.8562C138.368 27.9657 138.696 29.1942 138.969 30.4312C139.261 31.7386 139.345 33.0833 139.218 34.4166C139.141 35.2168 139.105 36.0663 138.705 36.7763C138.43 37.2648 138.233 37.8027 137.886 38.2515C137.662 38.5427 137.805 38.6198 138.09 38.633C138.643 38.6796 139.196 38.5448 139.664 38.2491C140.259 37.8773 140.695 37.3406 141.196 36.9002C142.336 35.9015 142.963 34.5405 143.047 32.9859C143.085 32.3782 143.135 31.7669 143.175 31.1568V31.152ZM138.555 33.3998C138.528 32.4552 138.523 31.4095 138.225 30.3759C137.913 29.2929 137.741 28.1654 137.117 27.1847C136.795 26.6817 136.789 26.6661 136.442 27.1847C135.432 28.7021 135.032 30.4192 134.836 32.1857C134.645 33.9445 134.701 35.721 135.002 37.4646C135.114 38.1372 135.57 38.3839 136.138 38.5596C136.593 38.7004 136.83 38.432 137.087 38.1288C137.505 37.6379 137.734 37.0699 138.005 36.4923C138.468 35.5212 138.541 34.5345 138.555 33.4046V33.3998ZM160.363 32.2482C160.186 32.531 159.979 32.5322 159.913 32.7608C159.612 33.7728 159.03 34.6561 158.493 35.5513C157.937 36.4803 157.29 37.3563 156.666 38.2443C156.468 38.5259 156.564 38.5993 156.85 38.5897C157.313 38.5924 157.776 38.5703 158.237 38.5235C159.555 38.3358 160.133 37.8196 160.373 36.5236C160.625 35.1602 160.581 33.7861 160.363 32.2482Z" fill="white"/>
<path d="M145.557 15.9866C136.092 17.5076 130.865 23.1716 129.097 32.3215C128.954 31.9126 128.947 31.4687 129.077 31.0557C129.201 30.6565 129.286 30.2462 129.329 29.8307C129.354 29.6285 129.295 29.3674 129.592 29.2856C129.612 29.2814 129.631 29.2732 129.647 29.2615C129.664 29.2498 129.678 29.2348 129.688 29.2175C129.698 29.2002 129.705 29.181 129.707 29.161C129.71 29.141 129.708 29.1208 129.702 29.1015C129.46 27.9752 130.196 27.098 130.55 26.1474C130.985 24.9669 131.676 23.8911 132.411 22.8407C133.211 21.6975 134.169 20.7433 135.197 19.8228C135.958 19.153 136.79 18.5679 137.679 18.078C138.465 17.6388 139.305 17.2128 140.207 16.9757C140.909 16.7904 141.585 16.5112 142.29 16.3416C143.354 16.0853 144.436 15.9108 145.557 15.9866Z" fill="white"/>
<path d="M153.649 29.9563C153.649 30.558 153.728 31.1693 153.631 31.7529C153.484 32.6349 153.329 33.5181 153.003 34.3701C152.505 35.6805 151.481 36.5781 150.635 37.6274C150.022 38.3891 149.366 38.6671 148.429 38.5901C147.629 38.5275 146.819 38.5636 146.007 38.5792C145.598 38.5865 145.523 38.43 145.755 38.1316C146.176 37.6046 146.612 37.0691 146.966 36.5192C147.485 35.7286 148.071 34.9741 148.506 34.1126C148.94 33.251 149.111 32.375 149.282 31.4653C149.438 30.6458 149.27 28.5665 149.093 27.7266C148.861 26.6256 148.452 25.5835 148.173 24.5005C147.961 23.6811 147.525 22.9494 147.18 22.1841C147.014 21.8159 147.012 21.6667 147.422 21.6318C148.849 21.522 150.284 21.6501 151.669 22.0109C152.25 22.1577 152.267 22.7593 152.437 23.1937C152.931 24.4584 153.195 25.7808 153.465 27.1117C153.67 28.0768 153.575 29.0141 153.649 29.9563Z" fill="#FF4B23"/>
<path d="M140.664 38.4255C140.939 38.1848 141.204 37.9357 141.492 37.7131C142.399 37.0092 142.881 36.0225 143.309 35.0093C144.187 32.9336 143.97 30.7532 143.769 28.6149C143.655 27.4056 143.218 26.2215 142.814 25.0471C142.571 24.3444 142.196 23.7066 141.984 23.0015C141.897 22.7079 142.014 22.626 142.204 22.5586C143.359 22.1336 144.568 21.8712 145.795 21.7789C146.202 21.7512 146.362 22.0978 146.464 22.3625C147.033 23.8534 147.807 25.2781 148.146 26.84C148.281 27.4633 148.522 28.0854 148.49 28.7521C148.443 29.6871 148.611 30.622 148.49 31.5606C148.336 32.7639 147.894 33.913 147.201 34.9118C146.522 35.9082 145.799 36.878 145.036 37.813C144.693 38.2342 144.323 38.6698 143.62 38.618C142.671 38.5494 141.712 38.6012 140.756 38.6012L140.664 38.4255Z" fill="#FF4B23"/>
<path d="M153.074 38.5912C152.531 38.5912 151.984 38.5852 151.443 38.5912C151.035 38.5972 150.968 38.4335 151.212 38.1351C151.696 37.5479 152.181 36.9643 152.655 36.3747C153.223 35.6719 153.558 34.8886 153.866 34.0691C154.606 32.1186 154.611 30.0814 154.392 28.0767C154.271 26.9082 154.271 25.6821 153.694 24.5558C153.422 24.0227 153.38 23.3585 153.089 22.7965C153.039 22.7003 153.017 22.5414 153.129 22.4644C153.173 22.4454 153.221 22.4355 153.269 22.4355C153.317 22.4355 153.364 22.4454 153.409 22.4644C154.356 22.8423 155.256 23.3297 156.089 23.9168C156.149 23.9711 156.197 24.0374 156.229 24.1115C156.261 24.1856 156.277 24.2657 156.275 24.3464C156.284 24.4427 156.275 24.5738 156.396 24.5955C157.535 24.7976 157.922 25.7988 158.483 26.5785C159.153 27.5099 159.549 28.5905 159.856 29.6867C160.071 30.4472 159.599 31.0982 159.325 31.7588C158.787 33.0578 158.139 34.3086 157.387 35.4975C156.749 36.5181 156.026 37.4841 155.226 38.3854C154.951 38.6923 154.61 38.6068 154.282 38.6152C153.88 38.6261 153.476 38.6152 153.071 38.6152L153.074 38.5912Z" fill="#FF4B23"/>
<path d="M143.173 31.1596C143.132 31.7709 143.083 32.381 143.052 32.9935C142.968 34.5482 142.341 35.9091 141.201 36.9079C140.7 37.3483 140.264 37.8849 139.669 38.2568C139.201 38.5524 138.648 38.6873 138.095 38.6406C137.81 38.6274 137.667 38.5504 137.892 38.2592C138.238 37.8103 138.435 37.2725 138.71 36.7839C139.11 36.074 139.146 35.2196 139.224 34.4242C139.351 33.091 139.266 31.7462 138.974 30.4389C138.702 29.2019 138.369 27.9733 137.716 26.8638C137.195 25.983 137.21 25.924 137.908 25.1888C138.673 24.3635 139.591 23.6933 140.612 23.2154C140.999 23.0397 141.163 23.1083 141.374 23.5258C141.964 24.6816 142.411 25.9037 142.707 27.1659C143.023 28.4736 143.18 29.8146 143.173 31.1596Z" fill="#FF4B23"/>
<path d="M138.552 33.4056C138.539 34.5391 138.465 35.5222 138.003 36.5029C137.731 37.0805 137.503 37.6485 137.085 38.1394C136.828 38.4427 136.591 38.711 136.135 38.5702C135.567 38.3945 135.112 38.1479 134.999 37.4752C134.699 35.7317 134.643 33.9551 134.833 32.1963C135.03 30.4298 135.429 28.7127 136.439 27.1953C136.787 26.6719 136.793 26.6875 137.115 27.1953C137.741 28.176 137.911 29.3011 138.223 30.3865C138.521 31.4153 138.531 32.461 138.552 33.4056Z" fill="#FF4B23"/>
<path d="M160.36 32.2461C160.578 33.7851 160.622 35.1593 160.37 36.5215C160.127 37.8174 159.552 38.3336 158.233 38.5214C157.773 38.5682 157.31 38.5902 156.847 38.5875C156.561 38.5972 156.465 38.5238 156.663 38.2422C157.286 37.3541 157.934 36.4781 158.49 35.5492C159.027 34.6539 159.609 33.7707 159.909 32.7587C159.976 32.5289 160.183 32.5277 160.36 32.2461Z" fill="#FF4B23"/>
<path d="M0.828125 43.6862V18.1717H3.26916L10.5605 35.1184V18.1717H13.5405V43.6862H11.258L3.87149 26.267V43.6862H0.828125Z" fill="white"/>
<path d="M22.5539 43.9697C20.8209 43.9697 19.4366 43.6337 18.401 42.9617C17.3654 42.2897 16.6257 41.3343 16.1819 40.0953C15.7381 38.8353 15.5162 37.3653 15.5162 35.6854V26.015C15.5162 24.3351 15.7381 22.8966 16.1819 21.6996C16.6469 20.4816 17.3866 19.5576 18.401 18.9277C19.4366 18.2767 20.8209 17.9512 22.5539 17.9512C24.287 17.9512 25.6607 18.2767 26.6752 18.9277C27.6896 19.5786 28.4188 20.5026 28.8626 21.6996C29.3275 22.8966 29.56 24.3351 29.56 26.015V35.7169C29.56 37.3758 29.3275 38.8248 28.8626 40.0638C28.4188 41.3028 27.6896 42.2687 26.6752 42.9617C25.6607 43.6337 24.287 43.9697 22.5539 43.9697ZM22.5539 41.1663C23.505 41.1663 24.2236 40.9773 24.7097 40.5993C25.1958 40.2003 25.5233 39.6543 25.6924 38.9613C25.8615 38.2473 25.946 37.4178 25.946 36.4728V25.2905C25.946 24.3456 25.8615 23.5371 25.6924 22.8651C25.5233 22.1721 25.1958 21.6471 24.7097 21.2901C24.2236 20.9121 23.505 20.7231 22.5539 20.7231C21.6029 20.7231 20.8738 20.9121 20.3665 21.2901C19.8804 21.6471 19.5529 22.1721 19.3838 22.8651C19.2147 23.5371 19.1302 24.3456 19.1302 25.2905V36.4728C19.1302 37.4178 19.2147 38.2473 19.3838 38.9613C19.5529 39.6543 19.8804 40.2003 20.3665 40.5993C20.8738 40.9773 21.6029 41.1663 22.5539 41.1663Z" fill="white"/>
<path d="M35.9658 43.6862L30.2277 18.1717H33.5881L37.6459 36.9768L41.5135 18.1717H44.7788L39.1042 43.6862H35.9658Z" fill="white"/>
<path d="M45.9164 43.6862V18.1717H55.8707V20.8176H49.4987V29.2595H54.666V31.7794H49.4987V41.1348H55.9341V43.6862H45.9164Z" fill="white"/>
<path d="M68.9553 43.9697C67.4759 43.9697 66.2396 43.6547 65.2462 43.0247C64.2741 42.3947 63.5343 41.5233 63.0271 40.4103C62.5199 39.2973 62.224 38.0058 62.1395 36.5358L65.3096 35.6854C65.373 36.5883 65.5104 37.4598 65.7218 38.2998C65.9542 39.1398 66.3241 39.8328 66.8313 40.3788C67.3385 40.9038 68.0466 41.1663 68.9553 41.1663C69.8853 41.1663 70.5827 40.9143 71.0477 40.4103C71.5337 39.8853 71.7768 39.1398 71.7768 38.1738C71.7768 37.0188 71.5126 36.0949 70.9842 35.4019C70.4559 34.6879 69.7901 33.9739 68.987 33.2599L64.6756 29.48C63.8302 28.745 63.2068 27.947 62.8052 27.086C62.4037 26.204 62.2029 25.1225 62.2029 23.8416C62.2029 21.9726 62.7418 20.5236 63.8197 19.4946C64.8975 18.4657 66.3664 17.9512 68.2262 17.9512C69.2407 17.9512 70.1283 18.0877 70.8891 18.3607C71.6711 18.6127 72.3157 19.0117 72.8229 19.5576C73.3513 20.1036 73.7634 20.7966 74.0593 21.6366C74.3763 22.4556 74.5877 23.4216 74.6934 24.5346L71.65 25.3535C71.5866 24.5136 71.4598 23.7471 71.2696 23.0541C71.0794 22.3401 70.7412 21.7731 70.2551 21.3531C69.7901 20.9121 69.1138 20.6916 68.2262 20.6916C67.3385 20.6916 66.6411 20.9331 66.1339 21.4161C65.6478 21.8781 65.4047 22.5711 65.4047 23.4951C65.4047 24.2721 65.5316 24.9125 65.7852 25.4165C66.0599 25.9205 66.4932 26.435 67.0849 26.96L71.4281 30.7399C72.4003 31.5799 73.2562 32.5879 73.9959 33.7639C74.7356 34.9189 75.1055 36.2943 75.1055 37.8903C75.1055 39.1503 74.8413 40.2423 74.3129 41.1663C73.7846 42.0692 73.0554 42.7622 72.1255 43.2452C71.2167 43.7282 70.16 43.9697 68.9553 43.9697Z" fill="white"/>
<path d="M82.9249 43.9697C81.0651 43.9697 79.6385 43.6022 78.6452 42.8672C77.6518 42.1322 76.9755 41.1033 76.6163 39.7803C76.257 38.4363 76.0773 36.8718 76.0773 35.0869V18.1717H79.5011V35.2444C79.5011 36.3363 79.5751 37.3338 79.723 38.2368C79.871 39.1398 80.188 39.8538 80.6741 40.3788C81.1813 40.9038 81.9316 41.1663 82.9249 41.1663C83.9393 41.1663 84.6896 40.9038 85.1757 40.3788C85.6618 39.8538 85.9788 39.1398 86.1268 38.2368C86.2747 37.3338 86.3487 36.3363 86.3487 35.2444V18.1717H89.7408V35.0869C89.7408 36.8718 89.5611 38.4363 89.2018 39.7803C88.8425 41.1033 88.1662 42.1322 87.1729 42.8672C86.2007 43.6022 84.7847 43.9697 82.9249 43.9697Z" fill="white"/>
<path d="M97.9822 43.9697C96.5028 43.9697 95.2664 43.6547 94.2731 43.0247C93.3009 42.3947 92.5612 41.5233 92.054 40.4103C91.5468 39.2973 91.2509 38.0058 91.1663 36.5358L94.3365 35.6854C94.3999 36.5883 94.5373 37.4598 94.7486 38.2998C94.9811 39.1398 95.351 39.8328 95.8582 40.3788C96.3654 40.9038 97.0734 41.1663 97.9822 41.1663C98.9121 41.1663 99.6096 40.9143 100.075 40.4103C100.561 39.8853 100.804 39.1398 100.804 38.1738C100.804 37.0188 100.539 36.0949 100.011 35.4019C99.4828 34.6879 98.817 33.9739 98.0139 33.2599L93.7025 29.48C92.8571 28.745 92.2336 27.947 91.8321 27.086C91.4305 26.204 91.2298 25.1225 91.2298 23.8416C91.2298 21.9726 91.7687 20.5236 92.8465 19.4946C93.9244 18.4657 95.3932 17.9512 97.2531 17.9512C98.2675 17.9512 99.1552 18.0877 99.916 18.3607C100.698 18.6127 101.343 19.0117 101.85 19.5576C102.378 20.1036 102.79 20.7966 103.086 21.6366C103.403 22.4556 103.615 23.4216 103.72 24.5346L100.677 25.3535C100.613 24.5136 100.487 23.7471 100.296 23.0541C100.106 22.3401 99.7681 21.7731 99.282 21.3531C98.817 20.9121 98.1407 20.6916 97.2531 20.6916C96.3654 20.6916 95.668 20.9331 95.1608 21.4161C94.6747 21.8781 94.4316 22.5711 94.4316 23.4951C94.4316 24.2721 94.5584 24.9125 94.812 25.4165C95.0868 25.9205 95.5201 26.435 96.1118 26.96L100.455 30.7399C101.427 31.5799 102.283 32.5879 103.023 33.7639C103.762 34.9189 104.132 36.2943 104.132 37.8903C104.132 39.1503 103.868 40.2423 103.34 41.1663C102.811 42.0692 102.082 42.7622 101.152 43.2452C100.244 43.7282 99.1869 43.9697 97.9822 43.9697Z" fill="white"/>
<path d="M105.326 43.6862V18.1717H108.908V29.1965H115.502V18.1717H119.085V43.6862H115.502V31.7479H108.908V43.6862H105.326Z" fill="white"/>
<path d="M121.702 43.6862V18.1717H125.22V43.6862H121.702Z" fill="white"/>
</svg>
