<svg width="30" height="29" viewBox="0 0 30 29" fill="none" xmlns="http://www.w3.org/2000/svg">
<rect x="0.5" width="29" height="29" rx="6" fill="white"/>
<path d="M14.6229 16.4304C15.0327 16.4304 15.4384 16.3497 15.8169 16.1929C16.1954 16.0361 16.5394 15.8063 16.8291 15.5166C17.1188 15.2269 17.3486 14.8829 17.5054 14.5044C17.6622 14.1259 17.7429 13.7202 17.7429 13.3104C17.7429 12.9007 17.6622 12.495 17.5054 12.1165C17.3486 11.7379 17.1188 11.394 16.8291 11.1043C16.5394 10.8145 16.1954 10.5847 15.8169 10.4279C15.4384 10.2711 15.0327 10.1904 14.6229 10.1904C13.7955 10.1904 13.0019 10.5191 12.4168 11.1043C11.8316 11.6894 11.5029 12.483 11.5029 13.3104C11.5029 14.1379 11.8316 14.9315 12.4168 15.5166C13.0019 16.1017 13.7955 16.4304 14.6229 16.4304V16.4304Z" stroke="#FCB326"/>
<path d="M6.24276 11.49C8.21276 2.83 21.0428 2.84 23.0028 11.5C24.1528 16.58 20.9928 20.88 18.2228 23.54C17.2548 24.4735 15.9625 24.9952 14.6178 24.9952C13.273 24.9952 11.9807 24.4735 11.0128 23.54C8.25276 20.88 5.09276 16.57 6.24276 11.49V11.49Z" stroke="#FCB326"/>
</svg>
