<svg width="30" height="29" viewBox="0 0 30 29" fill="none" xmlns="http://www.w3.org/2000/svg">
<rect x="0.5" width="29" height="29" rx="6" fill="white"/>
<path d="M10.7508 10.1616V9.19156C10.7508 6.94156 12.5608 4.73156 14.8108 4.52156C15.436 4.46014 16.0671 4.53029 16.6635 4.7275C17.2599 4.92471 17.8085 5.24461 18.2738 5.66661C18.7391 6.08861 19.1109 6.60336 19.3653 7.17773C19.6197 7.75211 19.751 8.37338 19.7508 9.00156V10.3816M12.2508 24.4916H18.2508C22.2708 24.4916 22.9908 22.8816 23.2008 20.9216L23.9508 14.9216C24.2208 12.4816 23.5208 10.4916 19.2508 10.4916H11.2508C6.9808 10.4916 6.2808 12.4816 6.5508 14.9216L7.3008 20.9216C7.5108 22.8816 8.2308 24.4916 12.2508 24.4916Z" stroke="#FCB326" stroke-miterlimit="10" stroke-linecap="round" stroke-linejoin="round"/>
<path d="M18.5 14.5H18.51M11.5 14.5H11.508" stroke="#FCB326" stroke-linecap="round" stroke-linejoin="round"/>
</svg>
