<svg width="30" height="29" viewBox="0 0 30 29" fill="none" xmlns="http://www.w3.org/2000/svg">
<rect x="0.5" width="29" height="29" rx="6" fill="white"/>
<path d="M6.99876 9.67H5.99876M23.9988 9.67H22.9988M14.9988 4.67V6.67M13.4988 6.67H16.4988M8.99876 16.67H11.9988M17.9988 16.67H20.9988M18.5088 4.5H11.4888C8.99876 4.5 8.44876 5.74 8.12876 7.26L6.99876 12.67H22.9988L21.8688 7.26C21.5488 5.74 20.9988 4.5 18.5088 4.5ZM24.9888 21.49C25.0988 22.66 24.1588 23.67 22.9588 23.67H21.0788C19.9988 23.67 19.8488 23.21 19.6588 22.64L19.4588 22.04C19.1788 21.22 18.9988 20.67 17.5588 20.67H12.4388C10.9988 20.67 10.7888 21.29 10.5388 22.04L10.3388 22.64C10.1488 23.21 9.99876 23.67 8.91876 23.67H7.03876C5.83876 23.67 4.89876 22.66 5.00876 21.49L5.56876 15.4C5.70876 13.9 5.99876 12.67 8.61876 12.67H21.3788C23.9988 12.67 24.2888 13.9 24.4288 15.4L24.9888 21.49Z" stroke="#FCB326" stroke-linecap="round" stroke-linejoin="round"/>
</svg>
