<svg width="24" height="25" viewBox="0 0 24 25" fill="none" xmlns="http://www.w3.org/2000/svg">
<path d="M7.8306 10.5625C8.38747 10.5625 8.83943 10.1145 8.83943 9.56253V5.66253C8.83943 3.91903 10.2704 2.50003 12.0293 2.50003C13.7882 2.50003 15.2197 3.91903 15.2197 5.66253V9.56253C15.2197 10.1145 15.6712 10.5625 16.2286 10.5625C16.7854 10.5625 17.2374 10.1145 17.2374 9.56253V5.66253C17.2379 2.81603 14.9015 0.500031 12.0293 0.500031C9.15822 0.500031 6.82178 2.81603 6.82178 5.66253V9.56253C6.82178 10.1145 7.27373 10.5625 7.8306 10.5625Z" fill="black"/>
<path d="M23.6015 8.3155H18.2466V9.5625C18.2466 10.6655 17.3417 11.5625 16.229 11.5625C15.1162 11.5625 14.2113 10.6655 14.2113 9.5625V8.3155H9.84867V9.5625C9.84867 10.6655 8.94375 11.5625 7.83101 11.5625C6.71828 11.5625 5.81336 10.6655 5.81336 9.5625V8.3155H0.398491C0.120055 8.3155 -0.0519497 8.533 0.0141284 8.801L3.54401 23.0495C3.75687 23.8505 4.60731 24.5 5.44262 24.5H18.5574C19.3937 24.5 20.2431 23.8505 20.457 23.0495L23.9858 8.801C24.0519 8.5325 23.8804 8.3155 23.6015 8.3155Z" fill="black"/>
<path d="M6.22217 17.389L11.1111 22.2779L19.9999 12.0557" stroke="#418923" stroke-width="2" stroke-linecap="round" stroke-linejoin="round"/>
</svg>
