<svg width="29" height="29" viewBox="0 0 29 29" fill="none" xmlns="http://www.w3.org/2000/svg">
<path d="M14.4987 9.94596C11.9899 9.94596 9.94255 11.9933 9.94255 14.5021C9.94255 17.0109 11.9899 19.0583 14.4987 19.0583C17.0075 19.0583 19.0549 17.0109 19.0549 14.5021C19.0549 11.9933 17.0075 9.94596 14.4987 9.94596ZM28.1637 14.5021C28.1637 12.6154 28.1808 10.7458 28.0749 8.86247C27.9689 6.67497 27.4699 4.73356 25.8703 3.13395C24.2673 1.53092 22.3293 1.03532 20.1418 0.929361C18.255 0.823404 16.3854 0.840494 14.5021 0.840494C12.6154 0.840494 10.7458 0.823404 8.86247 0.929361C6.67497 1.03532 4.73356 1.53434 3.13395 3.13395C1.53092 4.73698 1.03532 6.67497 0.929361 8.86247C0.823404 10.7492 0.840494 12.6188 0.840494 14.5021C0.840494 16.3854 0.823404 18.2585 0.929361 20.1418C1.03532 22.3293 1.53434 24.2707 3.13395 25.8703C4.73698 27.4733 6.67497 27.9689 8.86247 28.0749C10.7492 28.1808 12.6188 28.1637 14.5021 28.1637C16.3888 28.1637 18.2585 28.1808 20.1418 28.0749C22.3293 27.9689 24.2707 27.4699 25.8703 25.8703C27.4733 24.2673 27.9689 22.3293 28.0749 20.1418C28.1842 18.2585 28.1637 16.3888 28.1637 14.5021ZM14.4987 21.5124C10.6193 21.5124 7.48844 18.3815 7.48844 14.5021C7.48844 10.6227 10.6193 7.49186 14.4987 7.49186C18.3781 7.49186 21.509 10.6227 21.509 14.5021C21.509 18.3815 18.3781 21.5124 14.4987 21.5124ZM21.7961 8.84196C20.8903 8.84196 20.1589 8.11051 20.1589 7.20475C20.1589 6.29899 20.8903 5.56754 21.7961 5.56754C22.7018 5.56754 23.4333 6.29899 23.4333 7.20475C23.4335 7.41983 23.3914 7.63285 23.3092 7.8316C23.227 8.03036 23.1064 8.21095 22.9543 8.36303C22.8023 8.51512 22.6217 8.6357 22.4229 8.71788C22.2242 8.80007 22.0111 8.84223 21.7961 8.84196Z" fill="#FCB326"/>
</svg>
