<svg style="vertical-align: -4px;" class="bi" xmlns="http://www.w3.org/2000/svg" xmlns:xlink="http://www.w3.org/1999/xlink" width="16pt" height="16pt" viewBox="0 0 16 16" version="1.1">
    <g id="surface1">
        <path style=" stroke:none;fill-rule:nonzero;fill:#fff;fill-opacity:1;" d="M 15.726562 3.480469 L 15.6875 3.441406 C 15.320312 3.074219 14.722656 3.074219 14.351562 3.445312 L 12.910156 4.898438 C 12.835938 4.972656 12.714844 4.976562 12.632812 4.90625 L 10.617188 3.042969 C 10.417969 2.859375 10.164062 2.761719 9.898438 2.761719 L 6.894531 2.761719 C 6.824219 2.761719 6.753906 2.789062 6.703125 2.835938 L 4.160156 5.253906 C 3.785156 5.625 3.761719 6.226562 4.101562 6.59375 C 4.285156 6.789062 4.53125 6.898438 4.796875 6.898438 L 4.800781 6.898438 C 5.0625 6.894531 5.316406 6.785156 5.492188 6.59375 L 7.289062 4.691406 L 7.933594 4.691406 L 3.738281 9.378906 L 1.148438 9.378906 C 0.535156 9.378906 0.03125 9.835938 0 10.421875 C -0.015625 10.730469 0.09375 11.019531 0.304688 11.242188 C 0.511719 11.460938 0.800781 11.585938 1.101562 11.585938 L 4.964844 11.585938 C 5.039062 11.585938 5.113281 11.554688 5.164062 11.496094 L 7.144531 9.386719 L 8.808594 11.125 L 8.304688 14.335938 C 8.179688 14.867188 8.433594 15.410156 8.910156 15.621094 C 9.058594 15.6875 9.214844 15.722656 9.371094 15.722656 C 9.539062 15.722656 9.703125 15.683594 9.859375 15.609375 C 10.152344 15.460938 10.367188 15.191406 10.445312 14.859375 L 11.300781 10.257812 C 11.320312 10.167969 11.289062 10.074219 11.226562 10.011719 L 8.9375 7.722656 L 10.753906 5.90625 L 12.023438 7.175781 C 12.378906 7.53125 12.996094 7.53125 13.347656 7.175781 L 15.726562 4.796875 C 15.902344 4.621094 16 4.386719 16 4.140625 C 16 3.890625 15.902344 3.65625 15.726562 3.480469 Z M 15.726562 3.480469 "></path>
        <path style=" stroke:none;fill-rule:nonzero;fill:#fff;fill-opacity:1;" d="M 12.6875 3.585938 C 13.597656 3.585938 14.339844 2.84375 14.339844 1.933594 C 14.339844 1.019531 13.597656 0.277344 12.6875 0.277344 C 11.773438 0.277344 11.03125 1.019531 11.03125 1.933594 C 11.03125 2.84375 11.773438 3.585938 12.6875 3.585938 Z M 12.6875 3.585938 "></path>
    </g>
</svg>