<?xml version="1.0" encoding="utf-8"?>
<!-- Generator: Adobe Illustrator 24.1.2, SVG Export Plug-In . SVG Version: 6.00 Build 0)  -->
<svg version="1.1" id="Layer_1" xmlns="http://www.w3.org/2000/svg" xmlns:xlink="http://www.w3.org/1999/xlink" x="0px" y="0px"
	 viewBox="0 0 29 29" style="enable-background:new 0 0 29 29;" xml:space="preserve">
<style type="text/css">
	.st0{fill:#FFFFFF;}
	.st1{fill:none;stroke:#FCB323;stroke-miterlimit:10;}
</style>
<g>
	<path class="st0" d="M6,0h17c3.3,0,6,2.7,6,6v17c0,3.3-2.7,6-6,6H6c-3.3,0-6-2.7-6-6V6C0,2.7,2.7,0,6,0z"/>
	<path class="st1" d="M18.8,23.6c-1.2,0-2.3-0.3-3.4-0.8s-2-1-2.9-1.7c-1.6-1.2-3-2.5-4.2-4.1c-0.8-1.1-1.6-2.2-2.1-3.5
		c-0.3-0.8-0.6-1.6-0.7-2.5c-0.1-0.8-0.1-1.5,0-2.3c0.1-0.4,0.2-1,0.5-1.5c0.2-0.3,0.5-0.5,0.8-0.7c0.6-0.4,1.2-0.8,1.9-1
		c0.4-0.1,0.6-0.1,0.8,0.2c0.2,0.3,0.5,0.6,0.7,1c0.5,0.7,1,1.4,1.4,2.2c0.2,0.3,0.3,0.6,0.4,0.9c0.1,0.3,0.1,0.5-0.1,0.7
		c-0.3,0.3-0.7,0.6-1,0.9c-0.2,0.2-0.4,0.3-0.6,0.5C10,12.2,9.9,12.6,10,13c0.2,0.9,0.7,1.7,1.2,2.5c0.6,0.8,1.3,1.4,2,2
		c0.6,0.5,1.3,1,2.1,1.3c0.2,0.1,0.5,0.2,0.8,0.3c0.5,0.1,0.9-0.1,1.2-0.5c0.3-0.3,0.5-0.6,0.8-1c0.1-0.1,0.2-0.3,0.4-0.4
		c0.2-0.2,0.5-0.3,0.7-0.2c0.5,0.1,1,0.3,1.4,0.6c0.9,0.5,1.7,1.1,2.5,1.8c0.1,0.1,0.1,0.1,0.2,0.2c0.3,0.3,0.4,0.7,0.2,1.1
		c-0.1,0.4-0.4,0.8-0.7,1.1c-0.2,0.3-0.5,0.5-0.8,0.8c-0.6,0.6-1.4,0.9-2.2,1C19.5,23.5,19.2,23.6,18.8,23.6z"/>
</g>
</svg>
